<svg class="svg-html" id='Avatar' viewBox ="0 0 7 7" width ="550px" height="550px" xmlns="http://www.w3.org/2000/svg" xmlns:xlink="http://www.w3.org/1999/xlink">
    
                        <rect class ="rectangle" x ="0" y="0" width="1" height="1" fill="#83197b"/>
                    <rect class ="rectangle" x ="1" y="0" width="1" height="1" fill="#83197b"/>
                    <rect class ="rectangle" x ="2" y="0" width="1" height="1" fill="#fd2755"/>
                    <rect class ="rectangle" x ="3" y="0" width="1" height="1" fill="#2c05f1"/>
                    <rect class ="rectangle" x ="4" y="0" width="1" height="1" fill="#d64747"/>
                    <rect class ="rectangle" x ="5" y="0" width="1" height="1" fill="#83197b"/>
                    <rect class ="rectangle" x ="6" y="0" width="1" height="1" fill="#78c29a"/>
            
                        <rect class ="rectangle" x ="0" y="6" width="1" height="1" fill="#2c05f1"/>
                    <rect class ="rectangle" x ="1" y="6" width="1" height="1" fill="#78c29a"/>
                    <rect class ="rectangle" x ="2" y="6" width="1" height="1" fill="#2c05f1"/>
                    <rect class ="rectangle" x ="3" y="6" width="1" height="1" fill="#8a4fd1"/>
                    <rect class ="rectangle" x ="4" y="6" width="1" height="1" fill="#cfe395"/>
                    <rect class ="rectangle" x ="5" y="6" width="1" height="1" fill="#fd2755"/>
                    <rect class ="rectangle" x ="6" y="6" width="1" height="1" fill="#83197b"/>
            
                        <rect class ="rectangle" x ="0" y="5" width="1" height="1" fill="#78c29a"/>
                    <rect class ="rectangle" x ="1" y="5" width="1" height="1" fill="#83197b"/>
                    <rect class ="rectangle" x ="2" y="5" width="1" height="1" fill="#fd2755"/>
                    <rect class ="rectangle" x ="3" y="5" width="1" height="1" fill="#21d70f"/>
                    <rect class ="rectangle" x ="4" y="5" width="1" height="1" fill="#78c29a"/>
                    <rect class ="rectangle" x ="5" y="5" width="1" height="1" fill="#78c29a"/>
                    <rect class ="rectangle" x ="6" y="5" width="1" height="1" fill="#83197b"/>
            
                        <rect class ="rectangle" x ="0" y="4" width="1" height="1" fill="#2c05f1"/>
                    <rect class ="rectangle" x ="1" y="4" width="1" height="1" fill="#fd2755"/>
                    <rect class ="rectangle" x ="2" y="4" width="1" height="1" fill="#2c05f1"/>
                    <rect class ="rectangle" x ="3" y="4" width="1" height="1" fill="#78c29a"/>
                    <rect class ="rectangle" x ="4" y="4" width="1" height="1" fill="#78c29a"/>
                    <rect class ="rectangle" x ="5" y="4" width="1" height="1" fill="#8a4fd1"/>
                    <rect class ="rectangle" x ="6" y="4" width="1" height="1" fill="#fd2755"/>
            
                        <rect class ="rectangle" x ="0" y="3" width="1" height="1" fill="#8a4fd1"/>
                    <rect class ="rectangle" x ="1" y="3" width="1" height="1" fill="#21d70f"/>
                    <rect class ="rectangle" x ="2" y="3" width="1" height="1" fill="#78c29a"/>
                    <rect class ="rectangle" x ="3" y="3" width="1" height="1" fill="#2c05f1"/>
                    <rect class ="rectangle" x ="4" y="3" width="1" height="1" fill="#d64747"/>
                    <rect class ="rectangle" x ="5" y="3" width="1" height="1" fill="#2c05f1"/>
                    <rect class ="rectangle" x ="6" y="3" width="1" height="1" fill="#2c05f1"/>
            
                        <rect class ="rectangle" x ="0" y="2" width="1" height="1" fill="#cfe395"/>
                    <rect class ="rectangle" x ="1" y="2" width="1" height="1" fill="#78c29a"/>
                    <rect class ="rectangle" x ="2" y="2" width="1" height="1" fill="#78c29a"/>
                    <rect class ="rectangle" x ="3" y="2" width="1" height="1" fill="#d64747"/>
                    <rect class ="rectangle" x ="4" y="2" width="1" height="1" fill="#2c05f1"/>
                    <rect class ="rectangle" x ="5" y="2" width="1" height="1" fill="#8a4fd1"/>
                    <rect class ="rectangle" x ="6" y="2" width="1" height="1" fill="#d64747"/>
            
                        <rect class ="rectangle" x ="0" y="1" width="1" height="1" fill="#fd2755"/>
                    <rect class ="rectangle" x ="1" y="1" width="1" height="1" fill="#78c29a"/>
                    <rect class ="rectangle" x ="2" y="1" width="1" height="1" fill="#8a4fd1"/>
                    <rect class ="rectangle" x ="3" y="1" width="1" height="1" fill="#2c05f1"/>
                    <rect class ="rectangle" x ="4" y="1" width="1" height="1" fill="#8a4fd1"/>
                    <rect class ="rectangle" x ="5" y="1" width="1" height="1" fill="#2c05f1"/>
                    <rect class ="rectangle" x ="6" y="1" width="1" height="1" fill="#83197b"/>
            
    </svg>