
<svg class="avatar" viewbox ="0 0 5 5" xmlns="http://www.w3.org/2000/svg" xmlns:xlink="http://www.w3.org/1999/xlink" >
    
                        <rect class ="rectangle" x ="0" y="0" width="1" height="1" fill="#607fb2"/>
                    <rect class ="rectangle" x ="1" y="0" width="1" height="1" fill="#0e8bb5"/>
                    <rect class ="rectangle" x ="2" y="0" width="1" height="1" fill="#f8a45b"/>
                    <rect class ="rectangle" x ="3" y="0" width="1" height="1" fill="#f8a45b"/>
                    <rect class ="rectangle" x ="4" y="0" width="1" height="1" fill="#8d057a"/>
            
                        <rect class ="rectangle" x ="0" y="4" width="1" height="1" fill="#607fb2"/>
                    <rect class ="rectangle" x ="1" y="4" width="1" height="1" fill="#0e8bb5"/>
                    <rect class ="rectangle" x ="2" y="4" width="1" height="1" fill="#f8a45b"/>
                    <rect class ="rectangle" x ="3" y="4" width="1" height="1" fill="#f8a45b"/>
                    <rect class ="rectangle" x ="4" y="4" width="1" height="1" fill="#8d057a"/>
            
                        <rect class ="rectangle" x ="0" y="1" width="1" height="1" fill="#607fb2"/>
                    <rect class ="rectangle" x ="1" y="1" width="1" height="1" fill="#2c6632"/>
                    <rect class ="rectangle" x ="2" y="1" width="1" height="1" fill="#2c6632"/>
                    <rect class ="rectangle" x ="3" y="1" width="1" height="1" fill="#0e8bb5"/>
                    <rect class ="rectangle" x ="4" y="1" width="1" height="1" fill="#2c6632"/>
            
                        <rect class ="rectangle" x ="0" y="3" width="1" height="1" fill="#607fb2"/>
                    <rect class ="rectangle" x ="1" y="3" width="1" height="1" fill="#2c6632"/>
                    <rect class ="rectangle" x ="2" y="3" width="1" height="1" fill="#2c6632"/>
                    <rect class ="rectangle" x ="3" y="3" width="1" height="1" fill="#0e8bb5"/>
                    <rect class ="rectangle" x ="4" y="3" width="1" height="1" fill="#2c6632"/>
            
                        <rect class ="rectangle" x ="0" y="2" width="1" height="1" fill="#607fb2"/>
                    <rect class ="rectangle" x ="1" y="2" width="1" height="1" fill="#8d057a"/>
                    <rect class ="rectangle" x ="2" y="2" width="1" height="1" fill="#f8a45b"/>
                    <rect class ="rectangle" x ="3" y="2" width="1" height="1" fill="#ab8bae"/>
                    <rect class ="rectangle" x ="4" y="2" width="1" height="1" fill="#634940"/>
            
    </svg>