<svg width="330" height="50" viewBox="0 0 330 50" fill="none" xmlns="http://www.w3.org/2000/svg">
<g clip-path="url(#clip0_207:3)">
<rect width="330" height="50" fill="white"/>
<path d="M30.33 20.3941C29.48 18.3941 28.17 17.3941 26.33 17.3941C24.14 17.3941 22.75 18.5041 22.75 20.4641C22.75 22.5841 24.75 23.1541 27.35 23.8341C30.35 24.6341 33 25.5441 33 29.0041C33 33.3441 30.27 35.3341 26.41 35.3341C22.55 35.3341 19.77 33.3341 19 29.4341L21.33 28.5241C22.04 31.1941 23.57 32.9541 26.41 32.9541C28.82 32.9541 30.5 31.7541 30.5 29.3441C30.5 27.2741 28.97 26.8441 25.99 26.1141C23.17 25.4041 20.25 24.5241 20.25 20.5441C20.25 17.3941 22.44 15.0041 26.33 15.0041C27.6848 14.9555 29.0195 15.3432 30.1374 16.1101C31.2553 16.877 32.0975 17.9826 32.54 19.2641L30.33 20.3941Z" fill="#26231E"/>
<path d="M38.36 15.2141H40.86V28.4041C40.8312 29.0188 40.9273 29.6331 41.1427 30.2096C41.3581 30.7862 41.6882 31.3131 42.1131 31.7583C42.538 32.2036 43.0488 32.5581 43.6146 32.8003C44.1805 33.0424 44.7895 33.1673 45.405 33.1673C46.0205 33.1673 46.6295 33.0424 47.1954 32.8003C47.7612 32.5581 48.272 32.2036 48.6969 31.7583C49.1218 31.3131 49.4519 30.7862 49.6673 30.2096C49.8827 29.6331 49.9788 29.0188 49.95 28.4041V15.2141H52.45V28.2141C52.45 30.0825 51.7078 31.8744 50.3866 33.1956C49.0654 34.5168 47.2734 35.259 45.405 35.259C43.5365 35.259 41.7446 34.5168 40.4234 33.1956C39.1022 31.8744 38.36 30.0825 38.36 28.2141V15.2141Z" fill="#26231E"/>
<path d="M71.47 15.2141V35.1241H68.74L60.43 19.7941V35.1241H57.93V15.2141H60.65L68.97 30.5441V15.2141H71.47Z" fill="#26231E"/>
<path d="M82.46 15.2141C87.63 15.2141 91.29 18.4241 91.29 25.1541C91.29 31.8841 87.63 35.0841 82.46 35.0841H77.46V15.2141H82.46ZM79.93 17.604V32.704H82.2C86.2 32.704 88.62 30.7041 88.62 25.1541C88.62 19.6041 86.15 17.604 82.2 17.604H79.93Z" fill="#26231E"/>
<path d="M104.57 15.2141L111.57 35.1241H108.99L107.2 29.8241H99.42L97.63 35.1241H95.07L102.14 15.2141H104.57ZM100.31 27.3941H106.44L103.38 18.454L100.31 27.3941Z" fill="#26231E"/>
<path d="M115 15.2141H117.75L122.64 24.7541L127.57 15.2141H130.32L123.94 27.2141V35.0441H121.44V27.2941L115 15.2141Z" fill="#26231E"/>
<path d="M153.68 15.23L157.91 26.23L162.14 15.23H164.81V35.1H162.31V20.54L158.85 29.39H156.96L153.5 20.54V35.1H151V15.23H153.68Z" fill="#26231E"/>
<path d="M215.11 25.73H211.79V35.1H209.29V15.23H216.29C219.81 15.23 222.14 16.96 222.14 20.48C222.237 21.6985 221.859 22.9072 221.086 23.8538C220.312 24.8004 219.203 25.4117 217.99 25.56L223.93 35.1H220.93L215.11 25.73ZM211.79 17.65V23.35H216.31C218.38 23.35 219.51 22.47 219.51 20.48C219.51 18.49 218.38 17.65 216.31 17.65H211.79Z" fill="#26231E"/>
<path d="M241.89 15.23V35.1H239.16L230.84 19.77V35.1H228.35V15.23H231.07L239.39 30.56V15.23H241.89Z" fill="#26231E"/>
<path d="M248.39 35.1V32.94H253.19V17.38H248.39V15.23H260.49V17.38H255.68V32.94H260.48V35.1H248.39Z" fill="#26231E"/>
<path d="M280.5 15.23V35.1H277.78L269.46 19.77V35.1H266.96V15.23H269.68L278 30.56V15.23H280.5Z" fill="#26231E"/>
<path d="M298.53 32.43C298.076 33.353 297.359 34.1209 296.469 34.637C295.579 35.153 294.557 35.3942 293.53 35.33C289.21 35.33 285.53 32.03 285.53 25.16C285.53 18.29 289.25 15 293.74 15C297.66 15 299.98 17.53 300.86 21.05L298.51 21.76C297.63 18.86 296.24 17.38 293.74 17.38C290.36 17.38 288.12 19.74 288.12 25.16C288.12 30.58 290.36 32.94 293.74 32.94C296.46 32.94 297.94 30.94 298.2 27.46H293.68V25.08H300.68V35.08H298.68L298.53 32.43Z" fill="#26231E"/>
<path d="M203.53 34.98H201.07C201.12 33.0935 200.792 31.216 200.105 29.4584C199.417 27.7008 198.385 26.0986 197.068 24.7465C195.752 23.3944 194.178 22.3198 192.439 21.586C190.7 20.8522 188.832 20.4742 186.945 20.4742C185.058 20.4742 183.19 20.8522 181.451 21.586C179.712 22.3198 178.138 23.3944 176.822 24.7465C175.505 26.0986 174.473 27.7008 173.785 29.4584C173.098 31.216 172.77 33.0935 172.82 34.98H170.37C170.37 30.5827 172.117 26.3655 175.226 23.2562C178.336 20.1468 182.553 18.4 186.95 18.4C191.347 18.4 195.564 20.1468 198.674 23.2562C201.783 26.3655 203.53 30.5827 203.53 34.98V34.98Z" fill="#26231E"/>
</g>
<defs>
<clipPath id="clip0_207:3">
<rect width="330" height="50" fill="white"/>
</clipPath>
</defs>
</svg>
