
<svg class="avatar" viewbox ="0 0 5 5" xmlns="http://www.w3.org/2000/svg" xmlns:xlink="http://www.w3.org/1999/xlink" >
    
                        <rect class ="rectangle" x ="0" y="0" width="1" height="1" fill="#f158ad"/>
                    <rect class ="rectangle" x ="4" y="0" width="1" height="1" fill="#f158ad"/>
                    <rect class ="rectangle" x ="1" y="0" width="1" height="1" fill="#f261a0"/>
                    <rect class ="rectangle" x ="3" y="0" width="1" height="1" fill="#f261a0"/>
                    <rect class ="rectangle" x ="2" y="0" width="1" height="1" fill="#f261a0"/>
            
                        <rect class ="rectangle" x ="0" y="1" width="1" height="1" fill="#f261a0"/>
                    <rect class ="rectangle" x ="4" y="1" width="1" height="1" fill="#f261a0"/>
                    <rect class ="rectangle" x ="1" y="1" width="1" height="1" fill="#a96124"/>
                    <rect class ="rectangle" x ="3" y="1" width="1" height="1" fill="#a96124"/>
                    <rect class ="rectangle" x ="2" y="1" width="1" height="1" fill="#a96124"/>
            
                        <rect class ="rectangle" x ="0" y="2" width="1" height="1" fill="#f261a0"/>
                    <rect class ="rectangle" x ="4" y="2" width="1" height="1" fill="#f261a0"/>
                    <rect class ="rectangle" x ="1" y="2" width="1" height="1" fill="#f261a0"/>
                    <rect class ="rectangle" x ="3" y="2" width="1" height="1" fill="#f261a0"/>
                    <rect class ="rectangle" x ="2" y="2" width="1" height="1" fill="#f261a0"/>
            
                        <rect class ="rectangle" x ="0" y="3" width="1" height="1" fill="#444a0d"/>
                    <rect class ="rectangle" x ="4" y="3" width="1" height="1" fill="#444a0d"/>
                    <rect class ="rectangle" x ="1" y="3" width="1" height="1" fill="#444a0d"/>
                    <rect class ="rectangle" x ="3" y="3" width="1" height="1" fill="#444a0d"/>
                    <rect class ="rectangle" x ="2" y="3" width="1" height="1" fill="#d29561"/>
            
                        <rect class ="rectangle" x ="0" y="4" width="1" height="1" fill="#f261a0"/>
                    <rect class ="rectangle" x ="4" y="4" width="1" height="1" fill="#f261a0"/>
                    <rect class ="rectangle" x ="1" y="4" width="1" height="1" fill="#f158ad"/>
                    <rect class ="rectangle" x ="3" y="4" width="1" height="1" fill="#f158ad"/>
                    <rect class ="rectangle" x ="2" y="4" width="1" height="1" fill="#f158ad"/>
            
    </svg>